/* XPM */
static char *a01973d8ea954ac3ac8de8a5b48b4a372ri4gtPKgzlWW0h9[] = {
/* columns rows colors chars-per-pixel */
"64 64 6 1 ",
"  c #68C5A0",
". c #68C7A0",
"X c #68CAA0",
"o c #68CFA0",
"O c #68D0A0",
"+ c #68D2A0",
/* pixels */
"ooooOOOOOoOOOOoXXoooOoooooooOOOoooooooooOOOooooooooooooOOOOOOOOO",
"ooooOOOOOoOOOOoXXOooOoooooooOOOoooooooooOOOOoooooooooooOOOOOOOOO",
"OOOOOOooOOOOOOooOOooo..oooooOO.X....oooOOOOXX......oOOOOOOOOOOOO",
"OOOOOOooOOOOOOOoOOOoo..oooooOOXX....ooOOOOOXX......oOOOOOOOOOOOO",
"OOOOOOoooXXXoXXOOOOOOXOOooOOOOoooXoooOOOOOOoooooXooooOOOOOooOXXX",
"OOOOOOoooXXXXooOOOOOoOOOooOOOOoOooXoooOOOOOOoXoOoXooOOOoOOoooooX",
"X...ooOOooooooooOOOOOOOOooOOOOOOoOOOoXXX.X.oXOOOOOOXX..XooooXooo",
"XXX.ooOOooooooooOOOOOO+OooOOOOOOOOOOXX.X.X.ooOOOOOOoXXXooXoooooo",
"..XXooOOooooooooOOOOO+OOOOOOOOOoOOOOXXX..X.ooOOOOOOXX..oXoOOoooo",
"XXXXooOOooooooooOOOOOOOOOOOOOoooooOOoXXXXXXooOOOOOOXXX.oooOOOOoo",
"XXXXooOOoOOoooooOOOOOOOOOOOOOOooooOOoXXoXXXoooOOOOOoXXXoooooOOoo",
"OOOOOOOOOOOX.XXOOOOOOOOOOOOOOO..XoOOOoOOOOooOOOOOOOOOOOOooooOooX",
"OoOOOOOOOOO..X.O+OOOOOOOOOOOooXX..OOOOOOOOooOOoOOOOOOOOoOOOOOOoo",
"ooOOOOOOOOOooooOOOOOOOOOOOOOooooooOOOOoOOXXooOOooXXXXXoOOOOOOOOo",
"XoOOOOOOOOOooooOOOOOOOOOOOOOoooooOOOOOOOOXXooOOooXXXXOOOOOOOOOOO",
"OOOOOOOOOOOOOOOOOOOOOOOOOOoo..ooOOOOOOOOOOoooOOOoOOoOOOOOOOOOOOO",
"OOOOOOOOOOOOOOOOOOOOOOOOOOoo..ooOOOOOOOOOOOOOOoooOOOOOOOOOOOOOOO",
"OOOOOOOOOOOOOOOOOoXXoXoOooOoXXooOOOOOOOOOOOOOOOooXoOOOOOOOOOOOOO",
"OoooOOOOOOOOOOOOOoXXXXXoOoOOXoooOOOOOOOOOOOOOOOooXXooOooOOOOOOOO",
"ooXXX.oooOOOOOOOOooooooOOOOOOOOOOOOOOOOOOOOOOOOoooooooo.XXXXOOOO",
"oXXXX.XoXOOOoOOOOoooXoooooOOOOOOOOOOOOOOOOOOOOOooXoOOoo.X.XXOOOO",
"ooXXXXoXoOOooooXoOOOOOoooooXooOoOOOOOOOOOooOoOOOOOOOOooXXXXXOOOO",
"oXXXXXXXoOOoooOoooOOOOOoooXoooooOOOOOOoooooooOOOOOOOOoXX.XXXOOoo",
"ooOOOOOOOOOXXXXXXoOOOOOXXoXXXXXoooOOOOoooXXooOOOOOOooooOOOOOOOXo",
"ooOOOOOOOOOoXXXXXooOOOOXXoXXXoXXooOOOOOOoXooooOOOOooXoOOOOOOOOOO",
"oXOOOOOOOOooOOOXXOoOOOOooXXXoOXoXoOOOOooOoXoooOOOooXooOOOOOOOOOO",
"OXOOOOOOOOoOO+OOOOOOOOooOOOOOOXXXXOOOOOOOOOOOOOOOOoX.XXOOOOOOOoO",
"XOOOOOOOOOOOOOOOOOOOOOOoOOOOOO.XX.OOOOOOOOOOOOOOOOoX.XXOOOOOOOOO",
"ooOOOOOOOOOOOOOOOX.....oOOOOOOOOOOOOOOOOOOOOooo..XooOOOOOOOOOOOO",
"OOOOOOOOOOOOOOOOOXXX...oOOOOOOOOOOOOOOOOOoOOooo..oooOOOOOOOOOOOO",
"OOOOOOOOOOOOOOOOOoXXXXXoOooOOOOOOOOOoOOOooOOooOoXoooOOOOOOOOOOOO",
"OOOOOOOOOOOOOOOOOooXoXooOoOOOOOOOOOoXXOXoOOOOOOXooooOOOOOOOOOOOO",
"OOOOOOooOOOoOOOOOXXooOOOOOOOOOOOOOOOooXoOOOoXXXXXoooOOOOOOOOOOOO",
"OOOOOOooOOOoOOOOOXXXoOOOOOOOOOOOOOOOoXXoOOOOXXXXXoooOOOOOOOOOOOO",
"OOOOOOooOoooOOoOOXXXXoOOOOOOOOOOOOOOOOOOOOoXo.XX.oooOOOoOOOO.XX.",
"OOOOOOooooooooOOOXXXXoOoOOOOOOOOOOOOOOOOOOoXX....oooOOOoOOOO...X",
"OOXoOOOOoXXXXoXoOOOOOOOoOOoXOOOOOOOOOOoXXoXoOOOOOoXoXoooOOOOXXXX",
"OOoXOOOOoXXXOOooOOOOOOOoOOooOOOOOOOOOOoooXooO+OOooooXoXoOOOOoXXo",
"....OOO+OOOOOOOOOOOOOOO..X.XOOOOOOOO.X.....OOOOOOXX....oOOOOOOOO",
"....OO+OOOOOOOOOOOOOOOOX...XOOOOOOOOX......OOOOOOXXX...XoXOOOOOO",
"....ooOOOOOOOOOOOOOOOOOXX.XXoOoOOOOOXX.....XXOOOOXX....oXoOOOOOO",
"ooooOOOOOOOOOOOXXOoOOoooooooOOooOOOOooooooooooOOoooooooOooOOOOOO",
"ooooOOOOOOOOOOOXXoooooooooooOOOoooooooOOoOooooooooooooOOOOOOoOOO",
"ooOOOOOOOOOOOOOOoOOoo..oooOOOOXX....oOOOOOOXX....ooOOoOOOOOOoOOO",
"OOOOOOOOooOOOOOoOOOoX..oooOOOO.X....oXOOOOOXX....oXOOOOOOOOOoXoX",
"OOOOOOoooXXXXXooOOooooXoooOOOoooXooXOoOOOOooooXoXoOOOOOOOOoo....",
"OOoOOOoooXXXXoooOOOoooooOoOOOOooooooOoOOOOOOoXoooOOOOOOoOOOO....",
"XX.XooooooooooOOOOOooOOoOOOOOOOOoOoOXo.XXXXOooOOOXXX..XXooOOoooo",
"XX..OOOOOOooooooOOOOOOOOOOOOOOOoOOOOXo.X...XOOOOOXXX...oXoOOOOOO",
"XXXXOOOOOOOXooooOOOOOOOOOOOOOOooOOOOXXXXXoXooOOOOooXoXXoooOOOOoo",
"XoXXOOOOOOOoooooOOOOOOOOOOOOOOXoOoOOoXXXXXoooOoOoooXXXXoooooOOoo",
"ooOOOOOOOOOoXXooOOOOOOOOOOOOOOoXXoOOOOOOOXXooOooXXoXoOOOooooOooX",
"ooOOOOOOOOOOXoooOOOOOOooOOOOOOooooooOOOOOXXOoooXXoXoooOOOOOOOOoo",
"XXOOOOOOOOOOOOOOOOOOOOOoOOOOOOOOoOOOOOooo..oooo....XXoOOOOOOOOOo",
"XXOOOOOOOOOOOOOOOOOOOOooOOOOOoooOOOOOOooo..oooo.X..XXOOOOOOOOOOO",
"ooOOOOOOOOOOOOOOooooOOooOOOOXXooOOOOooooooooooooooooooOOOOOOOOOO",
"OOOOOOOOOOOOOOOOoooXooooOOOOXXooOOOOOOOOOOOOOOooooOOOOOOOOOOOOOO",
"OOOOOOOOOOOOOOOOooooooooOOOO.XoOOOOOOOOOOOOOOOooooOOOOOOOOOOOOOO",
"OOOOOOOOOOOOOOOOOX.... oOOOOOOOOOOOOOOOOOOOOOOO..XOOOOOOOOOOOOOO",
"OOOOOOOOOOOOOOOOo......XooOOOOOOOOOOOOOOOOOOOOo..oOOOOOoOOOOOOOO",
"OOXX.XXXoOOOOOOOOOOooooooOOOOOOOOOOOOOOOOOOOOOOoooooo.XXXXXXOOOO",
"OOX.XXoXoOOOOOOOOoooXoooooOOOoOOOOOOOOOOoOOOOOOOoooooXXXXXooOOOO",
"XoX.X.XoXOOoooOOoOOOOOOooXooooOOOOOOOOOOOooooOOOOOoooXXXXoOOOOoo",
"ooXXX.oXoOOXoXOOOOOOOOooooooOOOOOOOOOOOOoXoooOOOOOOOoXXoXoOOOOXX"
};
