/* XPM */
static char *_9ee38652ba646948928a95b8909cc8chcndCarzIEzqtqvH[] = {
/* columns rows colors chars-per-pixel */
"64 64 15 1 ",
"  c None",
". c black",
"X c #282038",
"o c #282838",
"O c #680000",
"+ c #502858",
"@ c #384058",
"# c #784040",
"$ c #A82028",
"% c #806808",
"& c #D84850",
"* c #E8C008",
"= c #D89870",
"- c #F8D0B8",
"; c #E8E8F8",
/* pixels */
"                            OOOOO                               ",
"                            OOOOO                               ",
"                          OO&&&OO   OO                          ",
"                          OO&&&OO   OO                          ",
"                          OO&&&OO   OO                          ",
"                          OO&&&&&OOO&&OO                        ",
"                          OO&&&&&OOO&&OO                        ",
"                   OO   OO&&&&&&&OOO&&OO   OO                   ",
"                   OO   OO&&&&&&&OOO&&OO   OO                   ",
"                 OO&&OOOOO&&&&&&&$$$&&&&OOO&&OO                 ",
"                 OO&&OOOOO&&&&&&&$$$&&&&OOO&&OO                 ",
"                 OO&&OOOOO&&&&&&&$$$&&&&OOO&&OO                 ",
"                 OO&&&&&OO&&&&&&&&&&&&&&OOO&&OO                 ",
"                 OO&&&&&OO&&&&&&&&&&&&&&OOO&&OO                 ",
"                 OO&&&&&&&&&&&&&&&&&&&&&&&&&&OO                 ",
"                 OO&&&&&&&&&&&&&&&&&&&&&&&&&&OO                 ",
"                 OO&&&&&&&&&&&&&&&&&&&&&&&&&&OO                 ",
"              OOO$$$$&&&&&&&&&&&&&&&&&&&&&&$$$$OOO              ",
"              OOO$$$$&&&&&&&&&&&&&&&&&&&&&&$$$$OOO              ",
"              OOO$$$$&&&&&&&&&&&&&&&&&&&&&&$$$$OOO              ",
"              OOO$$$$&&&&&&&&&&&&&&&&&&&&&&$$$$OOO              ",
"              OOO$$$$$$$&&&&&&&&&&&&&&&&$$$$$$$OOO              ",
"              OOO$$$$$$$&&&&&&&&&&&&&&&&$$$$$$$OOO              ",
"              OOO$$$$$$$&&&&&&&&&&&&&&&&$$$$$$$OOO              ",
"              OOOOO$$$$$OO&&&&&&&&&&&&OO$$$$$OOOOO              ",
"              OOOOO$$$$$OO&&&&&&&&&&&&OO$$$$$OOOOO              ",
"              OOO..$$OOO==OO$$$&&$$$OO==OOO$$..OOO              ",
"              OOO..$$OOO==OO$$$&&$$$OO==OOO$$..OOO              ",
"              ...--OO===----OOOOOOOO----===OO--...              ",
"              ...--OO===----OOOOOOOO----===OO--...              ",
"              ...--OO===----OOOOOOOO----===OO--...              ",
"              ...==OO---$$------------$$---OO==...              ",
"              ...==OO---$$------------$$---OO==...              ",
"                 ....---;;$$--------$$;;---....                 ",
"                 ....---;;$$--------$$;;---....                 ",
"                 ....---;;$$--------$$;;---....                 ",
"                   ..---;;..--------..;;---..                   ",
"                   ..---;;..--------..;;---..                   ",
"                   ##===----------------===##                   ",
"                   ##===----------------===##                   ",
"                   ..+++==-----==-----==+++..                   ",
"                   ..+++==-----==-----==+++..                   ",
"                   ..+++==-----==-----==+++..                   ",
"                 ....+++..##========##..+++....                 ",
"                 ....+++..##========##..+++....                 ",
"              ###....+++..%%########%%..+++....###              ",
"              ###....+++..%%########%%..+++....###              ",
"            ##===OO@@...@@**XXX$$XXX**@@...@@OO===##            ",
"            ##===OO@@...@@**XXX$$XXX**@@...@@OO===##            ",
"            ##===OO@@...@@**XXX$$XXX**@@...@@OO===##            ",
"            ##=====OO...@@@@%%%%%%%%@@@@...OO=====##            ",
"            ##=====OO...@@@@%%%%%%%%@@@@...OO=====##            ",
"              #####.......@@XXX$$XXX@@.......#####              ",
"              #####.......@@XXX$$XXX@@.......#####              ",
"              #####.......@@XXX$$XXX@@.......#####              ",
"              ...++..ooooo$$@@@$$@@@$$ooooo..++...              ",
"              ...++..ooooo$$@@@$$@@@$$ooooo..++...              ",
"              ..........oooo........oooo..........              ",
"              ..........oooo........oooo..........              ",
"                   .........        .........                   ",
"                   .........        .........                   ",
"                   .........        .........                   ",
"                     .....            .....                     ",
"                     .....            .....                     "
};
