/* XPM */
static char *_4031c528444455b9bcff30cfc089d1bxcKysds94ws7jpVj[] = {
/* columns rows colors chars-per-pixel */
"64 64 15 1 ",
"  c None",
". c black",
"X c #282838",
"o c #384040",
"O c #784040",
"+ c #486060",
"@ c #C03838",
"# c #B87020",
"$ c #F06848",
"% c #F8B020",
"& c #D8A078",
"* c #9890B0",
"= c #F8D0B8",
"- c #B8B0D0",
"; c #E8E8F8",
/* pixels */
"                       ooooooooooooooooooo                      ",
"                       ooooooooooooooooooo                      ",
"                       ooooooooooooooooooo                      ",
"                 ...ooo+++%%%%%%%%%%%%%+++ooo...                ",
"                 ...ooo+++%%%%%%%%%%%%%+++ooo...                ",
"                 ...ooo+++%%%%%%%%%%%%%+++ooo...                ",
"               ..ooo+++###%%%%%%%%%%%%%###+++ooo..              ",
"               ..ooo+++###%%%%%%%%%%%%%###+++ooo..              ",
"               ..++++++%%%%%%%%%%%%%%%%%%%++++++..              ",
"               ..++++++%%%%%%%%%%%%%%%%%%%++++++..              ",
"               ..++++++%%%%%%%%%%%%%%%%%%%++++++..              ",
"            ...oo++++++%%%%%%%%%%%%%%%%%%%++++++oo...           ",
"            ...oo++++++%%%%%%%%%%%%%%%%%%%++++++oo...           ",
"            ...oo++++++%%%%%%%%%%%%%%%%%%%++++++oo...           ",
"            ...oo++++++%%%%%%%%%%%%%%%%%%%++++++oo...           ",
"            ...oo++++++%%%%%%%%%%%%%%%%%%%++++++oo...           ",
"            ...oo++++++%%%%%%%%%%%%%%%%%%%++++++oo...           ",
"            ...ooooo......%%%%%%%%%%%%%%%%+++ooooo...           ",
"            ...ooooo......%%%%%%%%%%%%%%%%+++ooooo...           ",
"            ...oo...ooo+++.....%%%%%%%%###oooooooo...           ",
"            ...oo...ooo+++.....%%%%%%%%###oooooooo...           ",
"            ...oo...ooo+++.....%%%%%%%%###oooooooo...           ",
"         OOO...oo...+++++++++++...ooo#####oooooooo...OOO        ",
"         OOO...oo...+++++++++++...ooo#####oooooooo...OOO        ",
"         OOO...oo...+++++++++++...ooo#####oooooooo...OOO        ",
"         ...&&&..++++++...++......ooooo###oooooo..&&&...        ",
"         ...&&&..++++++...++......ooooo###oooooo..&&&...        ",
"         ...&&&..++++++...++......ooooo###oooooo..&&&...        ",
"         ...&&&..+++...........###########oooXXXOO&&&...        ",
"         ...&&&..+++...........###########oooXXXOO&&&...        ",
"         ...&&&..+++...........###########oooXXXOO&&&...        ",
"            ...OO...&&&***ooOOOOOOOOOoo***XXX&&&OO...           ",
"            ...OO...&&&***ooOOOOOOOOOoo***XXX&&&OO...           ",
"               ..&&&&&&;;;..&&&&&&&&&..;;;&&&&&&..              ",
"               ..&&&&&&;;;..&&&&&&&&&..;;;&&&&&&..              ",
"               ..&&&&&&;;;..&&&&&&&&&..;;;&&&&&&..              ",
"                 OOO&&&===================&&&OOO                ",
"                 OOO&&&===================&&&OOO                ",
"                 OOO&&&===================&&&OOO                ",
"                 ...OOO&&&=====&&&=====&&&OOO...                ",
"                 ...OOO&&&=====&&&=====&&&OOO...                ",
"                 ...OOO&&&=====&&&=====&&&OOO...                ",
"               ..$$$OOO...OO&&&&&&&&&OO...OOO$$$..              ",
"               ..$$$OOO...OO&&&&&&&&&OO...OOO$$$..              ",
"               ..$$$OOO...OO&&&&&&&&&OO...OOO$$$..              ",
"            OOO@@$$$OOO...--+++++++++--@@@OOO$$$@@OOO           ",
"            OOO@@$$$OOO...--+++++++++--@@@OOO$$$@@OOO           ",
"         ...===&&ooo...@@@..;;;+++;;;@@@@@...ooo&&===...        ",
"         ...===&&ooo...@@@..;;;+++;;;@@@@@...ooo&&===...        ",
"         ...===&&ooo...@@@..;;;+++;;;@@@@@...ooo&&===...        ",
"         ...=====......OOO@@......OOO@@OOO......=====...        ",
"         ...=====......OOO@@......OOO@@OOO......=====...        ",
"         ...=====......OOO@@......OOO@@OOO......=====...        ",
"            ........+++.....------........+++........           ",
"            ........+++.....------........+++........           ",
"            ........+++.....------........+++........           ",
"                 ...oooooo+++++ooo+++++oooooo...                ",
"                 ...oooooo+++++ooo+++++oooooo...                ",
"                 ...------.............------...                ",
"                 ...------.............------...                ",
"                 ...------.............------...                ",
"                    ......             ......                   ",
"                    ......             ......                   ",
"                    ......             ......                   "
};
