/* XPM */
static char *_54d8f3f5f4146f192b7872a6ded5242uzyQr9OUMoHduUXi[] = {
/* columns rows colors chars-per-pixel */
"64 64 23 1 ",
"  c None",
". c #383028",
"X c #403830",
"o c #202848",
"O c #303050",
"+ c #284848",
"@ c #384050",
"# c #384850",
"$ c #206068",
"% c #287078",
"& c #504840",
"* c #585040",
"= c #405850",
"- c #685840",
"; c #506848",
": c #587848",
"> c #786048",
", c #806848",
"< c #688848",
"1 c #709048",
"2 c #80A848",
"3 c #88B850",
"4 c #408890",
/* pixels */
"                               ##                               ",
"                             ##33#                              ",
"                             ##33#                              ",
"                           ;#11331##;                           ",
"                        ;;;1#33333##1;;                         ",
"                      ;;111#13333311#11;;;                      ",
"                     #11111#23333322#11111#                     ",
"                     #11111#23333322#11111#                     ",
"                     #<1111;23333322;1111<#                     ",
"                   ##<1111;2222332222;1111<#                    ",
"                  #1111111222222222222111111##                  ",
"                  #1111111222222222222111111##                  ",
"                  #1111111222222222222111111##                  ",
"                 O=1111111122222222221111111==O                 ",
"                O<=;;1<111122222222221111<1;==;O                ",
"             oOO;<<==;11111112222211111111;=;;;;Ooo             ",
"            o=##<<<==<21111111111111111111<=;;;;#==o            ",
"            o=##<<<==<21111111111111111111<=;;;;#==o            ",
"           o==##<<<==2221111111111111111111=;;;;#===o           ",
"           o==##=;<==22211<1111111111<11111=;;;=#===o           ",
"         ooO====#<<::=2<<<111111111111<<<1=;;;;#====Oo          ",
"         oo#O#;;#<<<<<:===2211111111111===;;;;<;#;;#O#oo        ",
"         oo#O#;;#<<<<<:===2211111111111===;;;;<;#;;#O#oo        ",
"         ooO#;;;#<<<<<<<;;2221111111111;;;;;<<<<#;;;#Ooo        ",
"        o##O=;;;#=<<<<;<::;21<<121<<11;;;;;;;;<=#;;;=O##o       ",
"        o##O==;;;##==;<<<<:;;;;222;;;;;;;;;;==##;;;==O##o       ",
"        o##O=====;;##<<<<<<<<;;<2<;;;;;;;;<<##;;=====O##o       ",
"        o##O=====;;##<<<<<<<<;;<2<;;;;;;;;<<##;;=====O##o       ",
"         OO#O===;;;##<<<<<<<<<<;;;;;;;;;;<<<##;;;===@#OO        ",
"        o####@##;;;##=<<<<;<<<<<;;;;<<;;;<<=##;;;##@####o       ",
"       o#####@==;;;;;##===<<<<<<;;<<<<<===##;;;;;==@#####o      ",
"       o####@====;;==;;;==<<<<<;=;<<<<<=======;;====@####o      ",
"       o####@====;;==;;;==<<<<<;=;<<<<<=======;;====@####o      ",
"       o####@======;;;;;===<<=======<<==============@####o      ",
"        o###@======;;;=;;;=====;;;==================@###o       ",
"         ooO#@===#====;;;;;;;;;;;;;;===========#===@#Ooo        ",
"           oO#@@@=====;;;;;;;;;;;;;;============@@@#Oo          ",
"           oO#@@@=====;;;;;;;;;;;;;;============@@@#Oo          ",
"           o####@======;;;;=;;;;;;==============@####o          ",
"         oo==###@@===#======;;;;;==========#===@@###==oo        ",
"         oo===###@@@@========;;;============@@@@###===oo        ",
"           o==OO###@@@====#===========#====@@@###OO==o          ",
"           o==OO###@@@====#===========#====@@@###OO==o          ",
"            oo===####@@@@@@=====@=====@@@@@@####===oo           ",
"              oo=O===#####@@===@@@===@@#####===O=oo             ",
"                o=====#####@@@@@#@@@@@#####=====o               ",
"                o=====#===#############===#=====o               ",
"                o=====#===#############===#=====o               ",
"                 o===#o====#####=#####====o#===o                ",
"                44oooo$o===o###===###o===o.oooo44               ",
"                44$$$$X-ooo&oOO===OOo-ooo**X$$$$444             ",
"                44$$$.-----X-ooooooo--X*****..$$444             ",
"                44$$$.-----X-ooooooo--X*****..$$444             ",
"                44$$$.*---*X----------X*****..$$444             ",
"                 4%$$$+.....*,,>>>>>,*.....+$$$%4               ",
"                 44$$$$$++++.>>,,,,,>.++++$$$$$44               ",
"                 44$$$$$$$$+.>>,,>..+$$$$$$$444                 ",
"                 44$$$$$$$$+.>>,,>..+$$$$$$$444                 ",
"                 44%%$$$$$$$+..>>.++$$$$$$$%444                 ",
"                   444%$$$$$$$$$$$$$$$$$$%44                    ",
"                     444%%$$$$$$$$$$$$%4444                     ",
"                        444444444444444                         ",
"                        444444444444444                         ",
"                            44444444                            "
};
